<svg width="75" height="75" viewBox="0 0 75 75" fill="none" xmlns="http://www.w3.org/2000/svg">
<path id="Vector" d="M74.9563 56.6548C74.2877 61.7362 71.7921 66.4005 67.9358 69.7764C64.0795 73.1524 59.1262 75.0092 54.001 75C24.2254 75 3.3933e-05 50.7747 3.3933e-05 20.9994C-0.00915365 15.8742 1.84764 10.9209 5.22362 7.06467C8.5996 3.2084 13.2639 0.712898 18.3453 0.0442416C19.6303 -0.112656 20.9316 0.150225 22.0549 0.793643C23.1781 1.43706 24.0632 2.42651 24.578 3.61428L32.4981 21.2957V21.3407C32.8922 22.2499 33.0549 23.2426 32.9718 24.23C32.8887 25.2175 32.5623 26.169 32.0218 26.9995C31.9543 27.1008 31.8831 27.1945 31.8081 27.2883L24.0004 36.5433C26.8092 42.2509 32.7793 48.1685 38.5619 50.9847L47.6896 43.2184C47.7792 43.1431 47.8731 43.0729 47.9709 43.0084C48.8007 42.4549 49.7555 42.1171 50.7488 42.0254C51.7421 41.9337 52.7426 42.0911 53.6597 42.4834L53.7085 42.5059L71.375 50.4222C72.5649 50.9351 73.5567 51.8194 74.2023 52.9429C74.8478 54.0663 75.1124 55.3685 74.9563 56.6548Z" fill="white"/>
</svg>
