<svg width="50" height="73" viewBox="0 0 50 73" fill="none" xmlns="http://www.w3.org/2000/svg">
<path id="Vector" d="M25 34.675C22.632 34.675 20.361 33.7136 18.6865 32.0023C17.0121 30.2911 16.0714 27.9701 16.0714 25.55C16.0714 23.1299 17.0121 20.8089 18.6865 19.0977C20.361 17.3864 22.632 16.425 25 16.425C27.368 16.425 29.639 17.3864 31.3135 19.0977C32.9879 20.8089 33.9286 23.1299 33.9286 25.55C33.9286 26.7483 33.6976 27.9349 33.2489 29.042C32.8002 30.1491 32.1425 31.155 31.3135 32.0023C30.4844 32.8497 29.5001 33.5218 28.4168 33.9804C27.3336 34.439 26.1725 34.675 25 34.675ZM25 0C18.3696 0 12.0107 2.69187 7.32233 7.48342C2.63392 12.275 0 18.7737 0 25.55C0 44.7125 25 73 25 73C25 73 50 44.7125 50 25.55C50 18.7737 47.3661 12.275 42.6777 7.48342C37.9893 2.69187 31.6304 0 25 0Z" fill="white"/>
</svg>
