<svg width="75" height="59" viewBox="0 0 75 59" fill="none" xmlns="http://www.w3.org/2000/svg">
<path id="Vector" d="M67.5 0H7.5C3.375 0 0.0375 3.31875 0.0375 7.375L0 51.625C0 55.6813 3.375 59 7.5 59H67.5C71.625 59 75 55.6813 75 51.625V7.375C75 3.31875 71.625 0 67.5 0ZM66 15.6719L39.4875 31.9706C38.2875 32.7081 36.7125 32.7081 35.5125 31.9706L9 15.6719C8.62398 15.4643 8.2947 15.1839 8.03208 14.8475C7.76947 14.5112 7.57898 14.126 7.47216 13.7152C7.36533 13.3044 7.34439 12.8765 7.41059 12.4575C7.47679 12.0385 7.62876 11.6371 7.85731 11.2775C8.08585 10.9179 8.38622 10.6077 8.74022 10.3655C9.09423 10.1234 9.49452 9.95445 9.91686 9.86885C10.3392 9.78325 10.7748 9.78281 11.1973 9.86756C11.6198 9.9523 12.0205 10.1205 12.375 10.3619L37.5 25.8125L62.625 10.3619C62.9795 10.1205 63.3802 9.9523 63.8027 9.86756C64.2252 9.78281 64.6608 9.78325 65.0831 9.86885C65.5055 9.95445 65.9058 10.1234 66.2598 10.3655C66.6138 10.6077 66.9141 10.9179 67.1427 11.2775C67.3712 11.6371 67.5232 12.0385 67.5894 12.4575C67.6556 12.8765 67.6347 13.3044 67.5278 13.7152C67.421 14.126 67.2305 14.5112 66.9679 14.8475C66.7053 15.1839 66.376 15.4643 66 15.6719Z" fill="white"/>
</svg>
