<svg width="46" height="31" viewBox="0 0 46 31" fill="none" xmlns="http://www.w3.org/2000/svg">
<path id="Vector" d="M45.8678 14.8722C45.8007 14.7192 44.1773 11.0786 40.5682 7.43031C35.7593 2.56912 29.6853 0 23 0C16.3147 0 10.2407 2.56912 5.43182 7.43031C1.82273 11.0786 0.191648 14.725 0.132232 14.8722C0.0450486 15.0705 0 15.285 0 15.5019C0 15.7189 0.0450486 15.9334 0.132232 16.1316C0.199315 16.2847 1.82273 19.9233 5.43182 23.5716C10.2407 28.4309 16.3147 31 23 31C29.6853 31 35.7593 28.4309 40.5682 23.5716C44.1773 19.9233 45.8007 16.2847 45.8678 16.1316C45.9549 15.9334 46 15.7189 46 15.5019C46 15.285 45.9549 15.0705 45.8678 14.8722ZM23 27.9C17.1005 27.9 11.9466 25.7319 7.68007 21.4578C5.92947 19.698 4.44011 17.6912 3.25832 15.5C4.43979 13.3086 5.92919 11.3018 7.68007 9.54219C11.9466 5.26806 17.1005 3.1 23 3.1C28.8995 3.1 34.0534 5.26806 38.3199 9.54219C40.0739 11.3014 41.5666 13.3081 42.7513 15.5C41.3693 18.1079 35.3491 27.9 23 27.9ZM23 6.2C21.1804 6.2 19.4017 6.74544 17.8888 7.76733C16.3758 8.78923 15.1966 10.2417 14.5003 11.941C13.804 13.6404 13.6218 15.5103 13.9768 17.3143C14.3318 19.1184 15.208 20.7755 16.4946 22.0761C17.7813 23.3767 19.4205 24.2625 21.2052 24.6213C22.9898 24.9801 24.8396 24.796 26.5207 24.0921C28.2018 23.3882 29.6386 22.1962 30.6495 20.6668C31.6604 19.1374 32.2 17.3394 32.2 15.5C32.1975 13.0343 31.2274 10.6703 29.5026 8.92674C27.7778 7.18321 25.4392 6.20256 23 6.2ZM23 21.7C21.7869 21.7 20.6011 21.3364 19.5925 20.6551C18.5839 19.9738 17.7978 19.0055 17.3335 17.8726C16.8693 16.7397 16.7479 15.4931 16.9845 14.2904C17.2212 13.0878 17.8053 11.983 18.6631 11.1159C19.5208 10.2489 20.6137 9.65836 21.8034 9.41913C22.9932 9.1799 24.2264 9.30268 25.3471 9.77195C26.4678 10.2412 27.4257 11.0359 28.0997 12.0555C28.7736 13.075 29.1333 14.2738 29.1333 15.5C29.1333 17.1443 28.4871 18.7213 27.3369 19.8841C26.1867 21.0468 24.6267 21.7 23 21.7Z" fill="#545454"/>
</svg>
