<svg width="46" height="46" viewBox="0 0 46 46" fill="none" xmlns="http://www.w3.org/2000/svg">
<g id="material-symbols:warning-outline">
<path id="Vector" d="M1.91675 40.2499L23.0001 3.83325L44.0834 40.2499H1.91675ZM8.52925 36.4166H37.4709L23.0001 11.4999L8.52925 36.4166ZM23.0001 34.4999C23.5431 34.4999 23.9987 34.3159 24.3667 33.9479C24.7347 33.5799 24.918 33.125 24.9167 32.5833C24.9167 32.0402 24.7327 31.5853 24.3647 31.2186C23.9967 30.8519 23.5419 30.6679 23.0001 30.6666C22.457 30.6666 22.0021 30.8506 21.6354 31.2186C21.2687 31.5866 21.0847 32.0415 21.0834 32.5833C21.0834 33.1263 21.2674 33.5818 21.6354 33.9498C22.0034 34.3178 22.4583 34.5012 23.0001 34.4999ZM21.0834 28.7499H24.9167V19.1666H21.0834V28.7499Z" fill="#545454"/>
</g>
</svg>
